<svg width="32" height="32" viewBox="0 0 32 32" fill="none" xmlns="http://www.w3.org/2000/svg">
<g filter="url(#filter0_d_1272_511)">
<g filter="url(#filter1_d_1272_511)">
<mask id="path-3-inside-1_1272_511" fill="white">
<path fill-rule="evenodd" clip-rule="evenodd" d="M21.111 10.6669C20.7974 10.3532 20.2889 10.3532 19.9752 10.6669L16 14.6421L12.025 10.667C11.7113 10.3534 11.2028 10.3534 10.8892 10.667C10.5756 10.9807 10.5756 11.4892 10.8892 11.8028L14.8642 15.7779L10.8892 19.7529C10.5755 20.0666 10.5755 20.5751 10.8892 20.8887C11.2028 21.2023 11.7113 21.2023 12.0249 20.8887L16 16.9136L19.9753 20.8889C20.2889 21.2025 20.7974 21.2025 21.111 20.8889C21.4247 20.5752 21.4246 20.0667 21.111 19.7531L17.1358 15.7779L21.111 11.8026C21.4246 11.489 21.4246 10.9805 21.111 10.6669Z"/>
</mask>
<path fill-rule="evenodd" clip-rule="evenodd" d="M21.111 10.6669C20.7974 10.3532 20.2889 10.3532 19.9752 10.6669L16 14.6421L12.025 10.667C11.7113 10.3534 11.2028 10.3534 10.8892 10.667C10.5756 10.9807 10.5756 11.4892 10.8892 11.8028L14.8642 15.7779L10.8892 19.7529C10.5755 20.0666 10.5755 20.5751 10.8892 20.8887C11.2028 21.2023 11.7113 21.2023 12.0249 20.8887L16 16.9136L19.9753 20.8889C20.2889 21.2025 20.7974 21.2025 21.111 20.8889C21.4247 20.5752 21.4246 20.0667 21.111 19.7531L17.1358 15.7779L21.111 11.8026C21.4246 11.489 21.4246 10.9805 21.111 10.6669Z" fill="black"/>
<path d="M16 14.6421L15.2929 15.3492L16 16.0563L16.7071 15.3492L16 14.6421ZM12.025 10.667L12.7321 9.95994L12.7321 9.95994L12.025 10.667ZM10.8892 10.667L11.5963 11.3742L10.8892 10.667ZM14.8642 15.7779L15.5713 16.485L16.2785 15.7779L15.5713 15.0707L14.8642 15.7779ZM16 16.9136L16.7071 16.2065L16 15.4994L15.2929 16.2065L16 16.9136ZM21.111 19.7531L20.4039 20.4602L20.4039 20.4602L21.111 19.7531ZM17.1358 15.7779L16.4287 15.0707L15.7215 15.7779L16.4287 16.485L17.1358 15.7779ZM21.111 11.8026L21.8181 12.5097L21.111 11.8026ZM20.6823 11.374C20.6055 11.4509 20.4808 11.4509 20.4039 11.374L21.8181 9.95975C21.1139 9.2556 19.9723 9.2556 19.2681 9.95975L20.6823 11.374ZM16.7071 15.3492L20.6823 11.374L19.2681 9.95975L15.2929 13.935L16.7071 15.3492ZM11.3178 11.3742L15.2929 15.3492L16.7071 13.935L12.7321 9.95994L11.3178 11.3742ZM11.5963 11.3742C11.5194 11.451 11.3947 11.451 11.3178 11.3742L12.7321 9.95994C12.0279 9.25579 10.8862 9.25579 10.1821 9.95994L11.5963 11.3742ZM11.5963 11.0957C11.6732 11.1726 11.6732 11.2973 11.5963 11.3742L10.1821 9.95994C9.47793 10.6641 9.47793 11.8058 10.1821 12.5099L11.5963 11.0957ZM15.5713 15.0707L11.5963 11.0957L10.1821 12.5099L14.1571 16.485L15.5713 15.0707ZM11.5963 20.46L15.5713 16.485L14.1571 15.0707L10.1821 19.0458L11.5963 20.46ZM11.5963 20.1816C11.6732 20.2585 11.6732 20.3831 11.5963 20.46L10.1821 19.0458C9.47791 19.75 9.47791 20.8916 10.1821 21.5958L11.5963 20.1816ZM11.3178 20.1816C11.3947 20.1047 11.5194 20.1047 11.5963 20.1816L10.1821 21.5958C10.8862 22.2999 12.0279 22.2999 12.732 21.5958L11.3178 20.1816ZM15.2929 16.2065L11.3178 20.1816L12.732 21.5958L16.7071 17.6207L15.2929 16.2065ZM20.6824 20.1818L16.7071 16.2065L15.2929 17.6207L19.2682 21.596L20.6824 20.1818ZM20.4039 20.1818C20.4808 20.1049 20.6055 20.1049 20.6824 20.1818L19.2682 21.596C19.9723 22.3001 21.114 22.3001 21.8181 21.596L20.4039 20.1818ZM20.4039 20.4602C20.327 20.3833 20.327 20.2587 20.4039 20.1818L21.8181 21.596C22.5223 20.8918 22.5223 19.7502 21.8181 19.046L20.4039 20.4602ZM16.4287 16.485L20.4039 20.4602L21.8181 19.046L17.8429 15.0707L16.4287 16.485ZM20.4039 11.0955L16.4287 15.0707L17.8429 16.485L21.8181 12.5097L20.4039 11.0955ZM20.4039 11.374C20.327 11.2971 20.327 11.1724 20.4039 11.0955L21.8181 12.5097C22.5223 11.8056 22.5223 10.6639 21.8181 9.95975L20.4039 11.374Z" fill="black" mask="url(#path-3-inside-1_1272_511)"/>
</g>
<rect x="4.75" y="4.75" width="22.5" height="22.5" rx="11.25" stroke="black" stroke-width="1.5" shape-rendering="crispEdges"/>
</g>
<defs>
<filter id="filter0_d_1272_511" x="0" y="0" width="32" height="32" filterUnits="userSpaceOnUse" color-interpolation-filters="sRGB">
<feFlood flood-opacity="0" result="BackgroundImageFix"/>
<feColorMatrix in="SourceAlpha" type="matrix" values="0 0 0 0 0 0 0 0 0 0 0 0 0 0 0 0 0 0 127 0" result="hardAlpha"/>
<feOffset/>
<feGaussianBlur stdDeviation="2"/>
<feComposite in2="hardAlpha" operator="out"/>
<feColorMatrix type="matrix" values="0 0 0 0 0.976471 0 0 0 0 0.321569 0 0 0 0 0 0 0 0 0.6 0"/>
<feBlend mode="normal" in2="BackgroundImageFix" result="effect1_dropShadow_1272_511"/>
<feBlend mode="normal" in="SourceGraphic" in2="effect1_dropShadow_1272_511" result="shape"/>
</filter>
<filter id="filter1_d_1272_511" x="6.6543" y="6.43164" width="18.6924" height="18.6924" filterUnits="userSpaceOnUse" color-interpolation-filters="sRGB">
<feFlood flood-opacity="0" result="BackgroundImageFix"/>
<feColorMatrix in="SourceAlpha" type="matrix" values="0 0 0 0 0 0 0 0 0 0 0 0 0 0 0 0 0 0 127 0" result="hardAlpha"/>
<feOffset/>
<feGaussianBlur stdDeviation="2"/>
<feComposite in2="hardAlpha" operator="out"/>
<feColorMatrix type="matrix" values="0 0 0 0 0.976471 0 0 0 0 0.321569 0 0 0 0 0 0 0 0 0.4 0"/>
<feBlend mode="normal" in2="BackgroundImageFix" result="effect1_dropShadow_1272_511"/>
<feBlend mode="normal" in="SourceGraphic" in2="effect1_dropShadow_1272_511" result="shape"/>
</filter>
</defs>
</svg>
